<svg xmlns="http://www.w3.org/2000/svg" width="900" height="620" viewBox="0 0 900 620">
<rect width="100%" height="100%" fill="white"/>
<style>
text{font-family:Arial,Helvetica,sans-serif;fill:#222;font-size:16px}
.small{font-size:13px}.axis{stroke:#222;stroke-width:1.5}.grid{stroke:#d9d9d9;stroke-width:1}.tick{stroke:#222;stroke-width:1}
.line{fill:none;stroke-width:2.6;stroke-linejoin:round;stroke-linecap:round}
.marker{stroke:#fff;stroke-width:1.3}
</style>
<line x1="112" y1="56" x2="802" y2="56" stroke="#222" class="axis"/>
<line x1="802" y1="56" x2="802" y2="516" stroke="#222" class="axis"/>
<line x1="112" y1="516" x2="802" y2="516" stroke="#222" class="axis"/>
<line x1="112" y1="56" x2="112" y2="516" stroke="#222" class="axis"/>
<line x1="112" y1="516" x2="112" y2="508" stroke="#222" class="tick"/>
<text x="112" y="540" text-anchor="middle" class="small">0</text>
<line x1="250" y1="516" x2="250" y2="508" stroke="#222" class="tick"/>
<text x="250" y="540" text-anchor="middle" class="small">10</text>
<line x1="388" y1="516" x2="388" y2="508" stroke="#222" class="tick"/>
<text x="388" y="540" text-anchor="middle" class="small">20</text>
<line x1="526" y1="516" x2="526" y2="508" stroke="#222" class="tick"/>
<text x="526" y="540" text-anchor="middle" class="small">30</text>
<line x1="664" y1="516" x2="664" y2="508" stroke="#222" class="tick"/>
<text x="664" y="540" text-anchor="middle" class="small">40</text>
<line x1="802" y1="516" x2="802" y2="508" stroke="#222" class="tick"/>
<text x="802" y="540" text-anchor="middle" class="small">50</text>
<line x1="112" y1="516" x2="120" y2="516" stroke="#222" class="tick"/>
<text x="102" y="521" text-anchor="end" class="small">0</text>
<line x1="112" y1="424" x2="120" y2="424" stroke="#222" class="tick"/>
<text x="102" y="429" text-anchor="end" class="small">10</text>
<line x1="112" y1="332" x2="120" y2="332" stroke="#222" class="tick"/>
<text x="102" y="337" text-anchor="end" class="small">20</text>
<line x1="112" y1="240" x2="120" y2="240" stroke="#222" class="tick"/>
<text x="102" y="245" text-anchor="end" class="small">30</text>
<line x1="112" y1="148" x2="120" y2="148" stroke="#222" class="tick"/>
<text x="102" y="153" text-anchor="end" class="small">40</text>
<line x1="112" y1="56" x2="120" y2="56" stroke="#222" class="tick"/>
<text x="102" y="61" text-anchor="end" class="small">50</text>
<text x="457" y="574" text-anchor="middle">Cold reduction (%)</text>
<text x="34" y="286" text-anchor="middle" transform="rotate(-90 34 286)">Ductility (%)</text>
<polyline points="112,269.9 302.1,403.3 471.35,424 608.8,433.2 715.75,444.7 787.92,442.4" stroke="#2ca02c" class="line"/>
<circle cx="112" cy="269.9" r="5" fill="#2ca02c" class="marker"/>
<circle cx="302.1" cy="403.3" r="5" fill="#2ca02c" class="marker"/>
<circle cx="471.35" cy="424" r="5" fill="#2ca02c" class="marker"/>
<circle cx="608.8" cy="433.2" r="5" fill="#2ca02c" class="marker"/>
<circle cx="715.75" cy="444.7" r="5" fill="#2ca02c" class="marker"/>
<circle cx="787.92" cy="442.4" r="5" fill="#2ca02c" class="marker"/>
<polyline points="112,106.6 302.1,175.6 471.35,189.4 608.8,217 715.75,221.6 787.92,230.8" stroke="#ff7f0e" class="line"/>
<circle cx="112" cy="106.6" r="5" fill="#ff7f0e" class="marker"/>
<circle cx="302.1" cy="175.6" r="5" fill="#ff7f0e" class="marker"/>
<circle cx="471.35" cy="189.4" r="5" fill="#ff7f0e" class="marker"/>
<circle cx="608.8" cy="217" r="5" fill="#ff7f0e" class="marker"/>
<circle cx="715.75" cy="221.6" r="5" fill="#ff7f0e" class="marker"/>
<circle cx="787.92" cy="230.8" r="5" fill="#ff7f0e" class="marker"/>
<rect x="600" y="80" width="160" height="72" fill="white" stroke="#777" stroke-width="1"/>
<line x1="618" y1="106" x2="646" y2="106" stroke="#2ca02c" stroke-width="2.8"/>
<circle cx="632" cy="106" r="4" fill="#2ca02c" class="marker"/>
<text x="654" y="110" text-anchor="start" class="small">A</text>
<line x1="618" y1="130" x2="646" y2="130" stroke="#ff7f0e" stroke-width="2.8"/>
<circle cx="632" cy="130" r="4" fill="#ff7f0e" class="marker"/>
<text x="654" y="134" text-anchor="start" class="small">Z</text>
</svg>