<svg xmlns="http://www.w3.org/2000/svg" width="980" height="720" viewBox="0 0 980 720">
<style>
text{font-family:Arial,Helvetica,sans-serif;fill:#222;font-size:16px}
.small{font-size:13px}.axis{stroke:#222;stroke-width:1.4}.grid{stroke:#d9d9d9;stroke-width:1}
.line{fill:none;stroke-width:2.6;stroke-linejoin:round;stroke-linecap:round}
.marker{stroke:#fff;stroke-width:1.3}
</style>
<text x="90" y="38" text-anchor="start">(a) Strength</text>
<line x1="90" y1="65" x2="90" y2="310" stroke="#d9d9d9" class="grid"/>
<text x="90" y="332" text-anchor="middle" class="small"></text>
<line x1="252" y1="65" x2="252" y2="310" stroke="#d9d9d9" class="grid"/>
<text x="252" y="332" text-anchor="middle" class="small">1</text>
<line x1="414" y1="65" x2="414" y2="310" stroke="#d9d9d9" class="grid"/>
<text x="414" y="332" text-anchor="middle" class="small">2</text>
<line x1="576" y1="65" x2="576" y2="310" stroke="#d9d9d9" class="grid"/>
<text x="576" y="332" text-anchor="middle" class="small">3</text>
<line x1="738" y1="65" x2="738" y2="310" stroke="#d9d9d9" class="grid"/>
<text x="738" y="332" text-anchor="middle" class="small">4</text>
<line x1="900" y1="65" x2="900" y2="310" stroke="#d9d9d9" class="grid"/>
<text x="900" y="332" text-anchor="middle" class="small">5</text>
<line x1="90" y1="310" x2="900" y2="310" stroke="#d9d9d9" class="grid"/>
<text x="80" y="315" text-anchor="end" class="small">5</text>
<line x1="90" y1="228.33" x2="900" y2="228.33" stroke="#d9d9d9" class="grid"/>
<text x="80" y="233.33" text-anchor="end" class="small">7</text>
<line x1="90" y1="146.67" x2="900" y2="146.67" stroke="#d9d9d9" class="grid"/>
<text x="80" y="151.67" text-anchor="end" class="small">9</text>
<line x1="90" y1="65" x2="900" y2="65" stroke="#d9d9d9" class="grid"/>
<text x="80" y="70" text-anchor="end" class="small">11</text>
<line x1="90" y1="310" x2="900" y2="310" stroke="#222" class="axis"/>
<line x1="90" y1="65" x2="90" y2="310" stroke="#222" class="axis"/>
<text x="495" y="360" text-anchor="middle">Cold reduction (%)</text>
<text x="35" y="187.5" text-anchor="middle" transform="rotate(-90 35 187.5)">Strength (MPa)</text>
<polyline points="90,277.13 313.16,169.12 511.85,146.67 673.2,135.64 798.75,112.98 883.47,114" stroke="#1f77b4" class="line"/>
<circle cx="90" cy="277.13" r="5" fill="#1f77b4" class="marker"/>
<circle cx="313.16" cy="169.12" r="5" fill="#1f77b4" class="marker"/>
<circle cx="511.85" cy="146.67" r="5" fill="#1f77b4" class="marker"/>
<circle cx="673.2" cy="135.64" r="5" fill="#1f77b4" class="marker"/>
<circle cx="798.75" cy="112.98" r="5" fill="#1f77b4" class="marker"/>
<circle cx="883.47" cy="114" r="5" fill="#1f77b4" class="marker"/>
<polyline points="90,223.64 313.16,158.1 511.85,129.72 673.2,114 798.75,96.24 883.47,93.99" stroke="#d62728" class="line"/>
<circle cx="90" cy="223.64" r="5" fill="#d62728" class="marker"/>
<circle cx="313.16" cy="158.1" r="5" fill="#d62728" class="marker"/>
<circle cx="511.85" cy="129.72" r="5" fill="#d62728" class="marker"/>
<circle cx="673.2" cy="114" r="5" fill="#d62728" class="marker"/>
<circle cx="798.75" cy="96.24" r="5" fill="#d62728" class="marker"/>
<circle cx="883.47" cy="93.99" r="5" fill="#d62728" class="marker"/>
<line x1="735" y1="84" x2="763" y2="84" stroke="#1f77b4" stroke-width="2.8"/>
<circle cx="749" cy="84" r="4" fill="#1f77b4" class="marker"/>
<text x="771" y="88" text-anchor="start" class="small">Rp0.2</text>
<line x1="735" y1="108" x2="763" y2="108" stroke="#d62728" stroke-width="2.8"/>
<circle cx="749" cy="108" r="4" fill="#d62728" class="marker"/>
<text x="771" y="112" text-anchor="start" class="small">Rm</text>
<text x="90" y="392" text-anchor="start">(b) Ductility</text>
<line x1="90" y1="420" x2="90" y2="640" stroke="#d9d9d9" class="grid"/>
<text x="90" y="662" text-anchor="middle" class="small"></text>
<line x1="252" y1="420" x2="252" y2="640" stroke="#d9d9d9" class="grid"/>
<text x="252" y="662" text-anchor="middle" class="small">1</text>
<line x1="414" y1="420" x2="414" y2="640" stroke="#d9d9d9" class="grid"/>
<text x="414" y="662" text-anchor="middle" class="small">2</text>
<line x1="576" y1="420" x2="576" y2="640" stroke="#d9d9d9" class="grid"/>
<text x="576" y="662" text-anchor="middle" class="small">3</text>
<line x1="738" y1="420" x2="738" y2="640" stroke="#d9d9d9" class="grid"/>
<text x="738" y="662" text-anchor="middle" class="small">4</text>
<line x1="900" y1="420" x2="900" y2="640" stroke="#d9d9d9" class="grid"/>
<text x="900" y="662" text-anchor="middle" class="small">5</text>
<line x1="90" y1="640" x2="900" y2="640" stroke="#d9d9d9" class="grid"/>
<text x="80" y="645" text-anchor="end" class="small"></text>
<line x1="90" y1="596" x2="900" y2="596" stroke="#d9d9d9" class="grid"/>
<text x="80" y="601" text-anchor="end" class="small">1</text>
<line x1="90" y1="552" x2="900" y2="552" stroke="#d9d9d9" class="grid"/>
<text x="80" y="557" text-anchor="end" class="small">2</text>
<line x1="90" y1="508" x2="900" y2="508" stroke="#d9d9d9" class="grid"/>
<text x="80" y="513" text-anchor="end" class="small">3</text>
<line x1="90" y1="464" x2="900" y2="464" stroke="#d9d9d9" class="grid"/>
<text x="80" y="469" text-anchor="end" class="small">4</text>
<line x1="90" y1="420" x2="900" y2="420" stroke="#d9d9d9" class="grid"/>
<text x="80" y="425" text-anchor="end" class="small">5</text>
<line x1="90" y1="640" x2="900" y2="640" stroke="#222" class="axis"/>
<line x1="90" y1="420" x2="90" y2="640" stroke="#222" class="axis"/>
<text x="495" y="690" text-anchor="middle">Cold reduction (%)</text>
<text x="35" y="530" text-anchor="middle" transform="rotate(-90 35 530)">Ductility (%)</text>
<polyline points="90,522.3 313.16,586.1 511.85,596 673.2,600.4 798.75,605.9 883.47,604.8" stroke="#2ca02c" class="line"/>
<circle cx="90" cy="522.3" r="5" fill="#2ca02c" class="marker"/>
<circle cx="313.16" cy="586.1" r="5" fill="#2ca02c" class="marker"/>
<circle cx="511.85" cy="596" r="5" fill="#2ca02c" class="marker"/>
<circle cx="673.2" cy="600.4" r="5" fill="#2ca02c" class="marker"/>
<circle cx="798.75" cy="605.9" r="5" fill="#2ca02c" class="marker"/>
<circle cx="883.47" cy="604.8" r="5" fill="#2ca02c" class="marker"/>
<polyline points="90,444.2 313.16,477.2 511.85,483.8 673.2,497 798.75,499.2 883.47,503.6" stroke="#ff7f0e" class="line"/>
<circle cx="90" cy="444.2" r="5" fill="#ff7f0e" class="marker"/>
<circle cx="313.16" cy="477.2" r="5" fill="#ff7f0e" class="marker"/>
<circle cx="511.85" cy="483.8" r="5" fill="#ff7f0e" class="marker"/>
<circle cx="673.2" cy="497" r="5" fill="#ff7f0e" class="marker"/>
<circle cx="798.75" cy="499.2" r="5" fill="#ff7f0e" class="marker"/>
<circle cx="883.47" cy="503.6" r="5" fill="#ff7f0e" class="marker"/>
<line x1="735" y1="439" x2="763" y2="439" stroke="#2ca02c" stroke-width="2.8"/>
<circle cx="749" cy="439" r="4" fill="#2ca02c" class="marker"/>
<text x="771" y="443" text-anchor="start" class="small">A</text>
<line x1="735" y1="463" x2="763" y2="463" stroke="#ff7f0e" stroke-width="2.8"/>
<circle cx="749" cy="463" r="4" fill="#ff7f0e" class="marker"/>
<text x="771" y="467" text-anchor="start" class="small">Z</text>
</svg>