<svg xmlns="http://www.w3.org/2000/svg" width="900" height="620" viewBox="0 0 900 620">
<rect width="100%" height="100%" fill="white"/>
<style>
text{font-family:Arial,Helvetica,sans-serif;fill:#222;font-size:16px}
.small{font-size:13px}.axis{stroke:#222;stroke-width:1.5}.grid{stroke:#d9d9d9;stroke-width:1}.tick{stroke:#222;stroke-width:1}
.line{fill:none;stroke-width:2.6;stroke-linejoin:round;stroke-linecap:round}
.marker{stroke:#fff;stroke-width:1.3}
</style>
<line x1="112" y1="56" x2="802" y2="56" stroke="#222" class="axis"/>
<line x1="802" y1="56" x2="802" y2="516" stroke="#222" class="axis"/>
<line x1="112" y1="516" x2="802" y2="516" stroke="#222" class="axis"/>
<line x1="112" y1="56" x2="112" y2="516" stroke="#222" class="axis"/>
<line x1="112" y1="516" x2="112" y2="508" stroke="#222" class="tick"/>
<text x="112" y="540" text-anchor="middle" class="small">0</text>
<line x1="250" y1="516" x2="250" y2="508" stroke="#222" class="tick"/>
<text x="250" y="540" text-anchor="middle" class="small">10</text>
<line x1="388" y1="516" x2="388" y2="508" stroke="#222" class="tick"/>
<text x="388" y="540" text-anchor="middle" class="small">20</text>
<line x1="526" y1="516" x2="526" y2="508" stroke="#222" class="tick"/>
<text x="526" y="540" text-anchor="middle" class="small">30</text>
<line x1="664" y1="516" x2="664" y2="508" stroke="#222" class="tick"/>
<text x="664" y="540" text-anchor="middle" class="small">40</text>
<line x1="802" y1="516" x2="802" y2="508" stroke="#222" class="tick"/>
<text x="802" y="540" text-anchor="middle" class="small">50</text>
<line x1="112" y1="516" x2="120" y2="516" stroke="#222" class="tick"/>
<text x="102" y="521" text-anchor="end" class="small">500</text>
<line x1="112" y1="362.67" x2="120" y2="362.67" stroke="#222" class="tick"/>
<text x="102" y="367.67" text-anchor="end" class="small">700</text>
<line x1="112" y1="209.33" x2="120" y2="209.33" stroke="#222" class="tick"/>
<text x="102" y="214.33" text-anchor="end" class="small">900</text>
<line x1="112" y1="56" x2="120" y2="56" stroke="#222" class="tick"/>
<text x="102" y="61" text-anchor="end" class="small">1100</text>
<text x="457" y="574" text-anchor="middle">Cold reduction (%)</text>
<text x="34" y="286" text-anchor="middle" transform="rotate(-90 34 286)">Strength (MPa)</text>
<polyline points="112,454.28 302.1,251.5 471.35,209.33 608.8,188.63 715.75,146.08 787.92,148" stroke="#1f77b4" class="line"/>
<circle cx="112" cy="454.28" r="5" fill="#1f77b4" class="marker"/>
<circle cx="302.1" cy="251.5" r="5" fill="#1f77b4" class="marker"/>
<circle cx="471.35" cy="209.33" r="5" fill="#1f77b4" class="marker"/>
<circle cx="608.8" cy="188.63" r="5" fill="#1f77b4" class="marker"/>
<circle cx="715.75" cy="146.08" r="5" fill="#1f77b4" class="marker"/>
<circle cx="787.92" cy="148" r="5" fill="#1f77b4" class="marker"/>
<polyline points="112,353.85 302.1,230.8 471.35,177.52 608.8,148 715.75,114.65 787.92,110.43" stroke="#d62728" class="line"/>
<circle cx="112" cy="353.85" r="5" fill="#d62728" class="marker"/>
<circle cx="302.1" cy="230.8" r="5" fill="#d62728" class="marker"/>
<circle cx="471.35" cy="177.52" r="5" fill="#d62728" class="marker"/>
<circle cx="608.8" cy="148" r="5" fill="#d62728" class="marker"/>
<circle cx="715.75" cy="114.65" r="5" fill="#d62728" class="marker"/>
<circle cx="787.92" cy="110.43" r="5" fill="#d62728" class="marker"/>
<rect x="600" y="80" width="160" height="72" fill="white" stroke="#777" stroke-width="1"/>
<line x1="618" y1="106" x2="646" y2="106" stroke="#1f77b4" stroke-width="2.8"/>
<circle cx="632" cy="106" r="4" fill="#1f77b4" class="marker"/>
<text x="654" y="110" text-anchor="start" class="small">Rp0.2</text>
<line x1="618" y1="130" x2="646" y2="130" stroke="#d62728" stroke-width="2.8"/>
<circle cx="632" cy="130" r="4" fill="#d62728" class="marker"/>
<text x="654" y="134" text-anchor="start" class="small">Rm</text>
</svg>